<svg width="1491" height="1291" xmlns="http://www.w3.org/2000/svg" xmlns:xlink="http://www.w3.org/1999/xlink" xml:space="preserve" overflow="hidden"><defs><clipPath id="clip0"><rect x="2655" y="902" width="1491" height="1291"/></clipPath></defs><g clip-path="url(#clip0)" transform="translate(-2655 -902)"><rect x="2656" y="903" width="1488" height="1288" fill="#FFFFFF"/><g><path d="M3400.61 1586.55 3445.61 1619.55M3445.61 1619.55 3428.61 1672.56M3428.61 1672.56 3372.61 1672.56M3372.61 1672.56 3354.61 1619.55M3354.61 1619.55 3400.61 1586.55M3400.61 1539.55 3490.61 1605.55M3490.61 1605.55 3455.61 1711.56M3455.61 1711.56 3344.61 1711.56M3344.61 1711.56 3309.61 1605.55M3309.61 1605.55 3400.61 1539.55M3400.61 1491.55 3535.62 1590.55M3535.62 1590.55 3483.61 1749.56M3483.61 1749.56 3316.61 1749.56M3316.61 1749.56 3264.61 1590.55M3264.61 1590.55 3400.61 1491.55M3400.61 1444.55 3580.62 1575.55M3580.62 1575.55 3511.62 1788.56M3511.62 1788.56 3288.61 1788.56M3288.61 1788.56 3219.61 1575.55M3219.61 1575.55 3400.61 1444.55M3400.61 1396.55 3626.62 1561.55M3626.62 1561.55 3539.62 1826.56M3539.62 1826.56 3260.61 1826.56M3260.61 1826.56 3174.6 1561.55M3174.6 1561.55 3400.61 1396.55M3400.61 1349.54 3671.62 1546.55M3671.62 1546.55 3567.62 1865.56M3567.62 1865.56 3232.61 1865.56M3232.61 1865.56 3129.6 1546.55M3129.6 1546.55 3400.61 1349.54M3400.61 1301.54 3716.62 1531.55M3716.62 1531.55 3595.62 1903.56M3595.62 1903.56 3204.61 1903.56M3204.61 1903.56 3083.6 1531.55M3083.6 1531.55 3400.61 1301.54M3400.61 1254.54 3761.62 1517.55M3761.62 1517.55 3623.62 1941.56M3623.62 1941.56 3176.6 1941.56M3176.6 1941.56 3038.6 1517.55M3038.6 1517.55 3400.61 1254.54M3400.61 1206.5 3806.5 1502.55M3806.5 1502.55 3651.62 1980.5M3651.62 1980.5 3148.6 1980.5M3148.6 1980.5 2993.5 1502.55M2993.5 1502.55 3400.61 1206.5" stroke="#D9D9D9" stroke-width="3.4375" stroke-linejoin="round" stroke-miterlimit="10" fill="none"/></g><g><path d="M3183 1564.05 3400.11 1235 3491.11 1605.05 3590 1896 3300.11 1773.06 3183 1564.05" stroke="#4F81BD" stroke-width="10.3125" stroke-linecap="round" stroke-linejoin="round" stroke-miterlimit="10" fill="none"/></g><g><path d="M3194 1568.05 3400.11 1235 3491.11 1605.05 3579 1881 3300.11 1773.06 3194 1568.05" stroke="#C0504D" stroke-width="10.3125" stroke-linecap="round" stroke-linejoin="round" stroke-miterlimit="10" fill="none"/></g><g><path d="M3129 1546.05 3400.11 1330 3744 1523.05 3534.12 1819 3288.11 1788.06 3129 1546.05" stroke="#9BBB59" stroke-width="10.3125" stroke-linecap="round" stroke-linejoin="round" stroke-miterlimit="10" fill="none"/></g><g><path d="M3183 1564.05 3400.11 1273 3491.11 1605.05 3612 1927 3300.11 1773.06 3183 1564.05" stroke="#8064A2" stroke-width="10.3125" stroke-linecap="round" stroke-linejoin="round" stroke-miterlimit="10" fill="none"/></g><g><text fill="#595959" font-family="Calibri,Calibri_MSFontService,sans-serif" font-weight="400" font-size="41" transform="matrix(1 0 0 1 3337.56 1648)">0</text></g><g><text fill="#595959" font-family="Calibri,Calibri_MSFontService,sans-serif" font-weight="400" font-size="41" transform="matrix(1 0 0 1 3306.26 1601)">0.5</text></g><g><text fill="#595959" font-family="Calibri,Calibri_MSFontService,sans-serif" font-weight="400" font-size="41" transform="matrix(1 0 0 1 3337.56 1553)">1</text></g><g><text fill="#595959" font-family="Calibri,Calibri_MSFontService,sans-serif" font-weight="400" font-size="41" transform="matrix(1 0 0 1 3306.26 1506)">1.5</text></g><g><text fill="#595959" font-family="Calibri,Calibri_MSFontService,sans-serif" font-weight="400" font-size="41" transform="matrix(1 0 0 1 3337.56 1458)">2</text></g><g><text fill="#595959" font-family="Calibri,Calibri_MSFontService,sans-serif" font-weight="400" font-size="41" transform="matrix(1 0 0 1 3306.26 1411)">2.5</text></g><g><text fill="#595959" font-family="Calibri,Calibri_MSFontService,sans-serif" font-weight="400" font-size="41" transform="matrix(1 0 0 1 3337.56 1363)">3</text></g><g><text fill="#595959" font-family="Calibri,Calibri_MSFontService,sans-serif" font-weight="400" font-size="41" transform="matrix(1 0 0 1 3306.26 1316)">3.5</text></g><g><text fill="#595959" font-family="Calibri,Calibri_MSFontService,sans-serif" font-weight="400" font-size="41" transform="matrix(1 0 0 1 3337.56 1268)">4</text></g><g><text fill="#595959" font-family="Calibri,Calibri_MSFontService,sans-serif" font-weight="400" font-size="41" transform="matrix(1 0 0 1 3306.26 1221)">4.5</text></g><g><text fill="#595959" font-family="Calibri,Calibri_MSFontService,sans-serif" font-weight="400" font-size="41" transform="matrix(1 0 0 1 3309.99 1174)">Coherence</text></g><g><text fill="#595959" font-family="Calibri,Calibri_MSFontService,sans-serif" font-weight="400" font-size="41" transform="matrix(1 0 0 1 3823.17 1509)">Groundedness</text></g><g><text fill="#595959" font-family="Calibri,Calibri_MSFontService,sans-serif" font-weight="400" font-size="41" transform="matrix(1 0 0 1 3661.63 2006)">Fluency</text></g><g><text fill="#595959" font-family="Calibri,Calibri_MSFontService,sans-serif" font-weight="400" font-size="41" transform="matrix(1 0 0 1 2967.93 2006)">Relevance</text></g><g><text fill="#595959" font-family="Calibri,Calibri_MSFontService,sans-serif" font-weight="400" font-size="41" transform="matrix(1 0 0 1 2709.96 1509)">weighted_score</text></g><g><path d="M2915 969 3003 969" stroke="#4F81BD" stroke-width="10.3125" stroke-linecap="round" stroke-linejoin="round" stroke-miterlimit="10" fill="none" fill-rule="evenodd"/></g><g><text fill="#595959" font-family="Calibri,Calibri_MSFontService,sans-serif" font-weight="400" font-size="41" transform="matrix(1 0 0 1 3012.37 981)">p0.9, ada002</text></g><g><path d="M3415 969 3503 969" stroke="#C0504D" stroke-width="10.3125" stroke-linecap="round" stroke-linejoin="round" stroke-miterlimit="10" fill="none" fill-rule="evenodd"/></g><g><text fill="#595959" font-family="Calibri,Calibri_MSFontService,sans-serif" font-weight="400" font-size="41" transform="matrix(1 0 0 1 3511.98 981)">p0.9, bge-large-en-v1.5</text></g><g><path d="M2915 1046 3003 1046" stroke="#9BBB59" stroke-width="10.3125" stroke-linecap="round" stroke-linejoin="round" stroke-miterlimit="10" fill="none" fill-rule="evenodd"/></g><g><text fill="#595959" font-family="Calibri,Calibri_MSFontService,sans-serif" font-weight="400" font-size="41" transform="matrix(1 0 0 1 3012.37 1058)">p0.5, ada002</text></g><g><path d="M3415 1046 3503 1046" stroke="#8064A2" stroke-width="10.3125" stroke-linecap="round" stroke-linejoin="round" stroke-miterlimit="10" fill="none" fill-rule="evenodd"/></g><g><text fill="#595959" font-family="Calibri,Calibri_MSFontService,sans-serif" font-weight="400" font-size="41" transform="matrix(1 0 0 1 3511.98 1058)">p0.5, bge-large-en-v1.5</text></g><rect x="2656.5" y="903.5" width="1488" height="1288" stroke="#D9D9D9" stroke-width="3.4375" stroke-linejoin="round" stroke-miterlimit="10" fill="none"/></g></svg>