<svg width="1341" height="993" xmlns="http://www.w3.org/2000/svg" xmlns:xlink="http://www.w3.org/1999/xlink" xml:space="preserve" overflow="hidden"><defs><clipPath id="clip0"><rect x="898" y="560" width="1341" height="993"/></clipPath></defs><g clip-path="url(#clip0)" transform="translate(-898 -560)"><rect x="899" y="561" width="1338" height="990" fill="#FFFFFF"/><g><path d="M1568.55 1080.54 1628.55 1124.54M1628.55 1124.54 1605.55 1195.54M1605.55 1195.54 1530.55 1195.54M1530.55 1195.54 1507.55 1124.54M1507.55 1124.54 1568.55 1080.54M1568.55 1017.53 1688.56 1104.54M1688.56 1104.54 1642.55 1246.54M1642.55 1246.54 1493.55 1246.54M1493.55 1246.54 1447.55 1104.54M1447.55 1104.54 1568.55 1017.53M1568.55 953.531 1749.56 1085.54M1749.56 1085.54 1680.56 1298.54M1680.56 1298.54 1456.55 1298.54M1456.55 1298.54 1386.55 1085.54M1386.55 1085.54 1568.55 953.531M1568.55 890.529 1809.56 1065.54M1809.56 1065.54 1717.56 1349.54M1717.56 1349.54 1418.55 1349.54M1418.55 1349.54 1326.54 1065.54M1326.54 1065.54 1568.55 890.529M1568.55 826.5 1870.5 1045.53M1870.5 1045.53 1754.56 1401.5M1754.56 1401.5 1381.55 1401.5M1381.55 1401.5 1266.5 1045.53M1266.5 1045.53 1568.55 826.5" stroke="#D9D9D9" stroke-width="3.4375" stroke-linejoin="round" stroke-miterlimit="10" fill="none"/></g><g><path d="M1387 1085.04 1568.05 890 1749 1085.04 1725.06 1360 1508.05 1226.04 1387 1085.04" stroke="#4F81BD" stroke-width="10.3125" stroke-linecap="round" stroke-linejoin="round" stroke-miterlimit="10" fill="none"/></g><g><path d="M1387 1085.04 1568.05 941 1798 1070.04 1658.05 1267 1493.05 1247.04 1387 1085.04" stroke="#C0504D" stroke-width="10.3125" stroke-linecap="round" stroke-linejoin="round" stroke-miterlimit="10" fill="none"/></g><g><path d="M1395 1088.04 1568.05 903 1749 1085.04 1717.06 1350 1508.05 1226.04 1395 1088.04" stroke="#9BBB59" stroke-width="10.3125" stroke-linecap="round" stroke-linejoin="round" stroke-miterlimit="10" fill="none"/></g><g><path d="M1323 1064.03 1568.05 839 1822 1062.03 1740.06 1380 1396.05 1380 1323 1064.03" stroke="#8064A2" stroke-width="10.3125" stroke-linecap="round" stroke-linejoin="round" stroke-miterlimit="10" fill="none"/></g><g><text fill="#595959" font-family="Calibri,Calibri_MSFontService,sans-serif" font-weight="400" font-size="41" transform="matrix(1 0 0 1 1505.37 1158)">0</text></g><g><text fill="#595959" font-family="Calibri,Calibri_MSFontService,sans-serif" font-weight="400" font-size="41" transform="matrix(1 0 0 1 1505.37 1094)">1</text></g><g><text fill="#595959" font-family="Calibri,Calibri_MSFontService,sans-serif" font-weight="400" font-size="41" transform="matrix(1 0 0 1 1505.37 1031)">2</text></g><g><text fill="#595959" font-family="Calibri,Calibri_MSFontService,sans-serif" font-weight="400" font-size="41" transform="matrix(1 0 0 1 1505.37 967)">3</text></g><g><text fill="#595959" font-family="Calibri,Calibri_MSFontService,sans-serif" font-weight="400" font-size="41" transform="matrix(1 0 0 1 1505.37 904)">4</text></g><g><text fill="#595959" font-family="Calibri,Calibri_MSFontService,sans-serif" font-weight="400" font-size="41" transform="matrix(1 0 0 1 1505.37 840)">5</text></g><g><text fill="#595959" font-family="Calibri,Calibri_MSFontService,sans-serif" font-weight="400" font-size="41" transform="matrix(1 0 0 1 1477.8 798)">Coherence</text></g><g><text fill="#595959" font-family="Calibri,Calibri_MSFontService,sans-serif" font-weight="400" font-size="41" transform="matrix(1 0 0 1 1882.16 1054)">Groundedness</text></g><g><text fill="#595959" font-family="Calibri,Calibri_MSFontService,sans-serif" font-weight="400" font-size="41" transform="matrix(1 0 0 1 1762.19 1423)">Fluency</text></g><g><text fill="#595959" font-family="Calibri,Calibri_MSFontService,sans-serif" font-weight="400" font-size="41" transform="matrix(1 0 0 1 1203 1423)">Relevance</text></g><g><text fill="#595959" font-family="Calibri,Calibri_MSFontService,sans-serif" font-weight="400" font-size="41" transform="matrix(1 0 0 1 986.594 1054)">weighted_score</text></g><g><path d="M1001 628 1089 628" stroke="#4F81BD" stroke-width="10.3125" stroke-linecap="round" stroke-linejoin="round" stroke-miterlimit="10" fill="none" fill-rule="evenodd"/></g><g><text fill="#595959" font-family="Calibri,Calibri_MSFontService,sans-serif" font-weight="400" font-size="41" transform="matrix(1 0 0 1 1098.44 639)">Phi_3_p0.6_bge-large</text></g><g><path d="M1583 628 1671 628" stroke="#C0504D" stroke-width="10.3125" stroke-linecap="round" stroke-linejoin="round" stroke-miterlimit="10" fill="none" fill-rule="evenodd"/></g><g><text fill="#595959" font-family="Calibri,Calibri_MSFontService,sans-serif" font-weight="400" font-size="41" transform="matrix(1 0 0 1 1679.79 639)">meta_llama3_p0.5_ada-002</text></g><g><path d="M1001 705 1089 705" stroke="#9BBB59" stroke-width="10.3125" stroke-linecap="round" stroke-linejoin="round" stroke-miterlimit="10" fill="none" fill-rule="evenodd"/></g><g><text fill="#595959" font-family="Calibri,Calibri_MSFontService,sans-serif" font-weight="400" font-size="41" transform="matrix(1 0 0 1 1098.44 717)">Phi_3_mini_p0.6_ada-002</text></g><g><path d="M1583 705 1671 705" stroke="#8064A2" stroke-width="10.3125" stroke-linecap="round" stroke-linejoin="round" stroke-miterlimit="10" fill="none" fill-rule="evenodd"/></g><g><text fill="#595959" font-family="Calibri,Calibri_MSFontService,sans-serif" font-weight="400" font-size="41" transform="matrix(1 0 0 1 1679.79 717)">ChatGPT3.5_ada-002</text></g><rect x="899.5" y="561.5" width="1338" height="990" stroke="#D9D9D9" stroke-width="3.4375" stroke-linejoin="round" stroke-miterlimit="10" fill="none"/></g></svg>