<svg width="1324" height="1046" xmlns="http://www.w3.org/2000/svg" xmlns:xlink="http://www.w3.org/1999/xlink" xml:space="preserve" overflow="hidden"><defs><clipPath id="clip0"><rect x="484" y="1743" width="1324" height="1046"/></clipPath></defs><g clip-path="url(#clip0)" transform="translate(-484 -1743)"><rect x="485" y="1744" width="1321" height="1043" fill="#FFFFFF"/><g><path d="M1145.54 2284.58 1210.54 2331.58M1210.54 2331.58 1185.54 2408.58M1185.54 2408.58 1104.54 2408.58M1104.54 2408.58 1079.54 2331.58M1079.54 2331.58 1145.54 2284.58M1145.54 2215.57 1276.54 2310.58M1276.54 2310.58 1226.54 2464.58M1226.54 2464.58 1064.54 2464.58M1064.54 2464.58 1014.53 2310.58M1014.53 2310.58 1145.54 2215.57M1145.54 2146.57 1341.54 2289.58M1341.54 2289.58 1266.54 2519.58M1266.54 2519.58 1023.53 2519.58M1023.53 2519.58 948.531 2289.58M948.531 2289.58 1145.54 2146.57M1145.54 2077.57 1406.55 2267.57M1406.55 2267.57 1306.54 2575.58M1306.54 2575.58 983.532 2575.58M983.532 2575.58 883.529 2267.57M883.529 2267.57 1145.54 2077.57M1145.54 2009.5 1472.5 2246.57M1472.5 2246.57 1347.54 2631.5M1347.54 2631.5 943.531 2631.5M943.531 2631.5 818.5 2246.57M818.5 2246.57 1145.54 2009.5" stroke="#D9D9D9" stroke-width="3.4375" stroke-linejoin="round" stroke-miterlimit="10" fill="none"/></g><g><path d="M1009 2309.08 1145.04 2133 1211.04 2332.08 1275 2531 1072.04 2453.08 1009 2309.08" stroke="#4F81BD" stroke-width="10.3125" stroke-linecap="round" stroke-linejoin="round" stroke-miterlimit="10" fill="none"/></g><g><path d="M988 2302.08 1145.04 2064 1211.04 2332.08 1283 2542 1072.04 2453.08 988 2302.08" stroke="#C0504D" stroke-width="10.3125" stroke-linecap="round" stroke-linejoin="round" stroke-miterlimit="10" fill="none"/></g><g><path d="M1001 2306.08 1145.04 2202 1315 2298.08 1242.04 2487 1081.04 2442.08 1001 2306.08" stroke="#9BBB59" stroke-width="10.3125" stroke-linecap="round" stroke-linejoin="round" stroke-miterlimit="10" fill="none"/></g><g><path d="M1000 2306.08 1145.04 2064 1211.04 2332.08 1267 2520 1081.04 2442.08 1000 2306.08" stroke="#8064A2" stroke-width="10.3125" stroke-linecap="round" stroke-linejoin="round" stroke-miterlimit="10" fill="none"/></g><g><text fill="#595959" font-family="Calibri,Calibri_MSFontService,sans-serif" font-weight="400" font-size="41" transform="matrix(1 0 0 1 1082.56 2367)">0</text></g><g><text fill="#595959" font-family="Calibri,Calibri_MSFontService,sans-serif" font-weight="400" font-size="41" transform="matrix(1 0 0 1 1082.56 2298)">1</text></g><g><text fill="#595959" font-family="Calibri,Calibri_MSFontService,sans-serif" font-weight="400" font-size="41" transform="matrix(1 0 0 1 1082.56 2229)">2</text></g><g><text fill="#595959" font-family="Calibri,Calibri_MSFontService,sans-serif" font-weight="400" font-size="41" transform="matrix(1 0 0 1 1082.56 2160)">3</text></g><g><text fill="#595959" font-family="Calibri,Calibri_MSFontService,sans-serif" font-weight="400" font-size="41" transform="matrix(1 0 0 1 1082.56 2092)">4</text></g><g><text fill="#595959" font-family="Calibri,Calibri_MSFontService,sans-serif" font-weight="400" font-size="41" transform="matrix(1 0 0 1 1082.56 2023)">5</text></g><g><text fill="#595959" font-family="Calibri,Calibri_MSFontService,sans-serif" font-weight="400" font-size="41" transform="matrix(1 0 0 1 1054.99 1979)">Coherence</text></g><g><text fill="#595959" font-family="Calibri,Calibri_MSFontService,sans-serif" font-weight="400" font-size="41" transform="matrix(1 0 0 1 1485.41 2254)">Groundedness</text></g><g><text fill="#595959" font-family="Calibri,Calibri_MSFontService,sans-serif" font-weight="400" font-size="41" transform="matrix(1 0 0 1 1355.49 2654)">Fluency</text></g><g><text fill="#595959" font-family="Calibri,Calibri_MSFontService,sans-serif" font-weight="400" font-size="41" transform="matrix(1 0 0 1 764.075 2654)">Relevance</text></g><g><text fill="#595959" font-family="Calibri,Calibri_MSFontService,sans-serif" font-weight="400" font-size="41" transform="matrix(1 0 0 1 537.714 2254)">weighted_score</text></g><g><path d="M660 1810 748 1810" stroke="#4F81BD" stroke-width="10.3125" stroke-linecap="round" stroke-linejoin="round" stroke-miterlimit="10" fill="none" fill-rule="evenodd"/></g><g><text fill="#595959" font-family="Calibri,Calibri_MSFontService,sans-serif" font-weight="400" font-size="41" transform="matrix(1 0 0 1 757.371 1822)">p0.5, ada002</text></g><g><path d="M1160 1810 1248 1810" stroke="#C0504D" stroke-width="10.3125" stroke-linecap="round" stroke-linejoin="round" stroke-miterlimit="10" fill="none" fill-rule="evenodd"/></g><g><text fill="#595959" font-family="Calibri,Calibri_MSFontService,sans-serif" font-weight="400" font-size="41" transform="matrix(1 0 0 1 1256.98 1822)">p0.5, bge-large-en-v1.5</text></g><g><path d="M660 1887 748 1887" stroke="#9BBB59" stroke-width="10.3125" stroke-linecap="round" stroke-linejoin="round" stroke-miterlimit="10" fill="none" fill-rule="evenodd"/></g><g><text fill="#595959" font-family="Calibri,Calibri_MSFontService,sans-serif" font-weight="400" font-size="41" transform="matrix(1 0 0 1 757.371 1899)">p0.1, ada002</text></g><g><path d="M1160 1887 1248 1887" stroke="#8064A2" stroke-width="10.3125" stroke-linecap="round" stroke-linejoin="round" stroke-miterlimit="10" fill="none" fill-rule="evenodd"/></g><g><text fill="#595959" font-family="Calibri,Calibri_MSFontService,sans-serif" font-weight="400" font-size="41" transform="matrix(1 0 0 1 1256.98 1899)">p0.1, bge-large-en-v1.5</text></g><rect x="485.5" y="1744.5" width="1321" height="1043" stroke="#D9D9D9" stroke-width="3.4375" stroke-linejoin="round" stroke-miterlimit="10" fill="none"/></g></svg>